<svg width="20" height="22" viewBox="0 0 20 22" fill="none" xmlns="http://www.w3.org/2000/svg">
    <path d="M1.875 21.8327C1.44167 21.8327 1.0625 21.6702 0.7375 21.3452C0.4125 21.0202 0.25 20.641 0.25 20.2077V3.41602C0.25 2.98268 0.4125 2.60352 0.7375 2.27852C1.0625 1.95352 1.44167 1.79102 1.875 1.79102H3.63542V0.166016H5.39583V1.79102H14.6042V0.166016H16.3646V1.79102H18.125C18.5583 1.79102 18.9375 1.95352 19.2625 2.27852C19.5875 2.60352 19.75 2.98268 19.75 3.41602V20.2077C19.75 20.641 19.5875 21.0202 19.2625 21.3452C18.9375 21.6702 18.5583 21.8327 18.125 21.8327H1.875ZM1.875 20.2077H18.125V8.56185H1.875V20.2077ZM1.875 6.93685H18.125V3.41602H1.875V6.93685ZM1.875 6.93685V3.41602V6.93685Z" fill="#777E99"/>
</svg>
