<svg width="20" height="20" viewBox="0 0 20 20" fill="none" xmlns="http://www.w3.org/2000/svg">
    <path d="M9.1875 15.4167H10.8125V10.8125H15.4167V9.1875H10.8125V4.58333H9.1875V9.1875H4.58333V10.8125H9.1875V15.4167ZM1.875 19.75C1.44167 19.75 1.0625 19.5875 0.7375 19.2625C0.4125 18.9375 0.25 18.5583 0.25 18.125V1.875C0.25 1.44167 0.4125 1.0625 0.7375 0.7375C1.0625 0.4125 1.44167 0.25 1.875 0.25H18.125C18.5583 0.25 18.9375 0.4125 19.2625 0.7375C19.5875 1.0625 19.75 1.44167 19.75 1.875V18.125C19.75 18.5583 19.5875 18.9375 19.2625 19.2625C18.9375 19.5875 18.5583 19.75 18.125 19.75H1.875ZM1.875 18.125H18.125V1.875H1.875V18.125ZM1.875 1.875V18.125V1.875Z" fill="white"/>
</svg>
