<svg width="18" height="18" viewBox="0 0 18 18" fill="none" xmlns="http://www.w3.org/2000/svg">
    <path d="M8.99967 8.97266C7.80801 8.97266 6.83301 8.59349 6.07468 7.83516C5.31634 7.07682 4.93717 6.10182 4.93717 4.91016C4.93717 3.71849 5.31634 2.74349 6.07468 1.98516C6.83301 1.22682 7.80801 0.847656 8.99967 0.847656C10.1913 0.847656 11.1663 1.22682 11.9247 1.98516C12.683 2.74349 13.0622 3.71849 13.0622 4.91016C13.0622 6.10182 12.683 7.07682 11.9247 7.83516C11.1663 8.59349 10.1913 8.97266 8.99967 8.97266ZM0.333008 17.6664V15.1206C0.333008 14.4345 0.504535 13.8477 0.847591 13.3602C1.19065 12.8727 1.63301 12.5025 2.17467 12.2497C3.3844 11.7081 4.54447 11.3018 5.65488 11.031C6.7653 10.7602 7.88023 10.6247 8.99967 10.6247C10.1191 10.6247 11.2295 10.7647 12.3309 11.0445C13.4323 11.3244 14.5879 11.7261 15.7976 12.2497C16.3573 12.5025 16.8087 12.8727 17.1518 13.3602C17.4948 13.8477 17.6663 14.4345 17.6663 15.1206V17.6664H0.333008ZM1.95801 16.0414H16.0413V15.1206C16.0413 14.8317 15.9556 14.5563 15.7841 14.2945C15.6125 14.0327 15.4004 13.8386 15.1476 13.7122C13.992 13.1525 12.9358 12.7688 11.9788 12.5612C11.0219 12.3536 10.0288 12.2497 8.99967 12.2497C7.97051 12.2497 6.96843 12.3536 5.99342 12.5612C5.01842 12.7688 3.96217 13.1525 2.82467 13.7122C2.5719 13.8386 2.36426 14.0327 2.20176 14.2945C2.03926 14.5563 1.95801 14.8317 1.95801 15.1206V16.0414ZM8.99967 7.34766C9.70384 7.34766 10.2861 7.11745 10.7465 6.65703C11.207 6.19661 11.4372 5.61432 11.4372 4.91016C11.4372 4.20599 11.207 3.6237 10.7465 3.16328C10.2861 2.70287 9.70384 2.47266 8.99967 2.47266C8.29551 2.47266 7.71322 2.70287 7.2528 3.16328C6.79238 3.6237 6.56217 4.20599 6.56217 4.91016C6.56217 5.61432 6.79238 6.19661 7.2528 6.65703C7.71322 7.11745 8.29551 7.34766 8.99967 7.34766Z" fill="#777E99"/>
</svg>
