<svg width="18" height="22" viewBox="0 0 18 22" fill="none" xmlns="http://www.w3.org/2000/svg">
    <path d="M7.75384 17.0931L13.9559 10.891L12.8997 9.83477L7.75384 14.9806L4.96426 12.191L3.90801 13.2473L7.75384 17.0931ZM1.95801 21.8327C1.52467 21.8327 1.14551 21.6702 0.820508 21.3452C0.495508 21.0202 0.333008 20.641 0.333008 20.2077V1.79102C0.333008 1.35768 0.495508 0.978516 0.820508 0.653516C1.14551 0.328516 1.52467 0.166016 1.95801 0.166016H11.7351L17.6663 6.09727V20.2077C17.6663 20.641 17.5038 21.0202 17.1788 21.3452C16.8538 21.6702 16.4747 21.8327 16.0413 21.8327H1.95801ZM10.9226 6.82851V1.79102H1.95801V20.2077H16.0413V6.82851H10.9226ZM1.95801 1.79102V6.82851V1.79102V20.2077V1.79102Z" fill="white"/>
</svg>
